<svg xmlns="http://www.w3.org/2000/svg" viewBox="0 0 340.68 365.87"><defs><style>.cls-1{fill:#e1e0e2;}.cls-2{fill:#939094;}.cls-3{fill:#666368;}.cls-4{fill:#403e43;}.cls-5{fill:#c5c3c7;}.cls-6{fill:#060807;}.cls-7{fill:#f5e727;}.cls-8{fill:#2b90cf;}.cls-9{fill:#f5e72a;}.cls-10{fill:#0b0d07;}.cls-11{fill:#0f1108;}.cls-12{fill:#1f1f12;}.cls-13{fill:#030507;}.cls-14{fill:#f4e62a;}.cls-15{fill:#f2e52d;}</style></defs><title>hermesMiddel 91</title><g id="Laag_2" data-name="Laag 2"><g id="Laag_1-2" data-name="Laag 1"><path class="cls-1" d="M340.67,262.29l-.13,0h-.13c0-.58-.05-1.15-.05-1.73V76.07c0-.58,0-1.15,0-1.73h.27Z"/><path class="cls-2" d="M94.15,0H245.27a2.11,2.11,0,0,1,0,.26c-.58,0-1.15.05-1.73.05H95.91c-.58,0-1.15,0-1.73-.06Z"/><path class="cls-3" d="M.29,258.88a.18.18,0,0,1-.27-.05V118.72l.29,0c0,.78,0,1.57,0,2.36V257.16C.35,257.73.31,258.31.29,258.88Z"/><path class="cls-4" d="M.31,118.74l-.29,0V.34L.41.49c0,.68-.07,1.36-.07,2v114C.34,117.27.32,118,.31,118.74Z"/><path class="cls-3" d="M245.25.29a2.11,2.11,0,0,0,0-.26H340a.37.37,0,0,0,0,.29l-.63,0H246.82C246.3.34,245.77.31,245.25.29Z"/><path class="cls-3" d="M.41.49,0,.34C.08.25-.14,0,.17,0S1,0,1.43,0H94.15l0,.25c-.68,0-1.36.06-2,.06H2.76A8.46,8.46,0,0,0,.41.49Z"/><path class="cls-5" d="M340.07.32A.37.37,0,0,1,340,0c.2.13.67-.31.63.31,0,.37,0,.74,0,1.11V74.33h-.27c0-5.82,0-11.65,0-17.47q0-27.31,0-54.62C340.34,1.61,340.6.9,340.07.32Z"/><path class="cls-5" d="M173.5,365.57c0,.1,0,.2,0,.3h-5.67v-.33Z"/><path class="cls-6" d="M173.5,365.57l-5.67,0c-4.14-1.28-8.31-2.44-12.48-3.6-8.29-2.31-16.55-4.75-24.86-7-12.34-3.37-24.55-7.14-36.61-11.4a249.47,249.47,0,0,1-36.15-15.79,141,141,0,0,1-25.82-17.8,105.89,105.89,0,0,1-18.36-21.21A99.49,99.49,0,0,1,.7,260.06a5,5,0,0,0-.41-1.18c0-.57.06-1.15.06-1.72V121.1c0-.79,0-1.58,0-2.36s0-1.47,0-2.2V2.53c0-.68,0-1.36.07-2A8.46,8.46,0,0,1,2.76.34H92.14c.68,0,1.36,0,2-.06s1.15.06,1.73.06H243.52c.58,0,1.15,0,1.73-.05s1.05.05,1.57.05h92.62l.63,0c.53.58.27,1.29.27,1.93q0,27.32,0,54.62c0,5.82,0,11.65,0,17.47,0,.58,0,1.15,0,1.73v184.5c0,.58,0,1.15.05,1.73a17.74,17.74,0,0,1-1.28,4.51A105.64,105.64,0,0,1,321,298.37a116.43,116.43,0,0,1-24.35,21.47,192.34,192.34,0,0,1-35.67,18.62c-11.86,4.83-24,8.89-36.22,12.6-9.64,2.92-19.34,5.64-29.05,8.33-7.2,2-14.4,3.95-21.6,5.92A4.17,4.17,0,0,0,173.5,365.57Zm1.25-10c1.55-.3,2.88-.53,4.2-.83,7.34-1.68,14.68-3.31,22-5.18,13-3.35,25.87-7.18,38.53-11.68A298.4,298.4,0,0,0,276,322.42c10.75-5.52,21-11.75,30.23-19.66a86.84,86.84,0,0,0,17.7-20.33A61,61,0,0,0,333,256.09c.7-7.41,1.08-14.86,1.27-22.3.15-6.24.1-12.49.16-18.73.16-14.64-.43-29.26-.74-43.89-.23-11.12-.61-22.23-.9-33.34-.22-8.29-.49-16.57-.58-24.86-.15-14,.2-28.11.79-42.15.1-2.47.16-2.26-2.12-2.26l-96,0q-28.8,0-57.61,0c-.42,0-.84,0-1.26,0-1.12,0-1.28.17-1.3,1.28s0,2.31,0,3.46V355.54Zm-7.72-143V76.27c0-2.15,0-4.3-.07-6.45,0-1.31-.08-1.36-1.31-1.3-.74,0-1.47.06-2.21.06H10.78c-.48,0-.95,0-1.42,0-1.59,0-1.61,0-1.62,1.56q0,3.54,0,7.08c0,10.75.07,21.51,0,32.26,0,16.11.08,32.21-.11,48.32-.14,11.95-.21,23.91-.66,35.86-.34,9.12-.55,18.25-.68,27.37a261.84,261.84,0,0,0,1.55,34.4,67.32,67.32,0,0,0,5.18,18.86c5.15,11.88,13.31,21.41,23.18,29.55C45,311.09,54.8,316.77,65,321.78c16.08,7.91,32.79,14.27,49.68,20.16,12.69,4.43,25.58,8.19,38.65,11.37,4.16,1,8.31,2.08,12.51,2.95,1.12.23,1.13.23,1.15-.94s.06-2.52.06-3.77Zm3.46-205H9.3c-1.35,0-1.72.34-1.6,1.67.09,1.15.15,2.3.15,3.46q0,23.05,0,46.12c0,2,0,2,2,2H331c2,0,2,0,2-2.09l0-39.51c0-3.47,0-6.93,0-10.39,0-1.2,0-1.22-1.25-1.23-1.41,0-2.83,0-4.25,0Z"/><path class="cls-7" d="M174.75,355.54V73.36c0-1.15-.05-2.3,0-3.46s.18-1.24,1.3-1.28c.42,0,.84,0,1.26,0q28.8,0,57.61,0l96,0c2.28,0,2.22-.21,2.12,2.26-.59,14-.94,28.1-.79,42.15.09,8.29.36,16.57.58,24.86.29,11.11.67,22.22.9,33.34.31,14.63.9,29.25.74,43.89-.06,6.24,0,12.49-.16,18.73-.19,7.44-.57,14.89-1.27,22.3a61,61,0,0,1-9.13,26.34,86.84,86.84,0,0,1-17.7,20.33C297,310.67,286.71,316.9,276,322.42a298.4,298.4,0,0,1-36.51,15.43c-12.66,4.5-25.52,8.33-38.53,11.68-7.29,1.87-14.63,3.5-22,5.18C177.63,355,176.3,355.24,174.75,355.54Zm73.12-88.45c.55-.25.91,0,1.29.15,2.32.81,4.67,1.54,7,2.15a53.12,53.12,0,0,0,13.78,2,18.8,18.8,0,0,0,9.11-2.61,3.49,3.49,0,0,0,1.86-2.57,27.28,27.28,0,0,0,.5-7,5.32,5.32,0,0,0-1.9-4.14,16.31,16.31,0,0,0-9.27-3.45,31.41,31.41,0,0,0-11.73,1.75q-6.31,2.13-12.42,4.81c-1.48.65-2.12.53-3.17-.71a5.38,5.38,0,0,1-1.35-4.66,44.78,44.78,0,0,0,.8-7c.21-8.66.45-17.31.56-26q.18-14.08.13-28.17c0-9.76-.21-19.51-.35-29.27a184.05,184.05,0,0,0-1.23-19.77c-.19-1.56-.36-3.13-.45-4.69a13.74,13.74,0,0,1,.64-5.59,5.34,5.34,0,0,1,2.89-3.35c-.07,1.41-.1,2.59-.19,3.78a24.12,24.12,0,0,0,.22,6.89,4.94,4.94,0,0,0,4.59,4c.94,0,1.88.05,2.83,0a3.88,3.88,0,0,0,3.32-2.06,6.4,6.4,0,0,0,.93-3.44,53.29,53.29,0,0,1,.29-6.44,6.75,6.75,0,0,1,1.5-3.89c.7-.81.9-.82,1.87-.29a4.22,4.22,0,0,1,1.9,2.22,9.26,9.26,0,0,1,.57,4.94,38.79,38.79,0,0,0-.38,7.84c.49,8.38,1.15,16.74,1.74,25.11a119.38,119.38,0,0,1-.22,21.22,46.41,46.41,0,0,1-4.7,16.36c-1.77,3.45-3.7,6.81-5.55,10.21-3.35,6.13-5.4,12.59-4.93,19.69a5.91,5.91,0,0,0,1,3.09,12.68,12.68,0,0,0,11.81,5.81c2.49-.14,4.15-1.1,5.11-3.4a31.72,31.72,0,0,0,2.27-9.43c.47-4.87.31-9.75.3-14.63,0-5.71-.39-11.43.33-17.13a30.49,30.49,0,0,1,2.05-8.52c.22-.5.33-1.09,1-1.32,0,1.5.37,2.87.42,4.29.25,6.76,0,13.53,0,20.29,0,6.14-.18,12.28.9,18.36a26.13,26.13,0,0,0,2.23,7.33,9.78,9.78,0,0,0,6.29,5.31,13.53,13.53,0,0,0,6.54-.1c1.17-.25,1.32-.59,1.07-1.79a4,4,0,0,0-2.2-2.72,23.86,23.86,0,0,0-4.25-1.58c-3.64-1.23-4.4-2.44-3.94-6.17a70,70,0,0,0,.54-8.31c0-5.15-.38-10.27-.7-15.4-.18-3-.31-6-.7-8.94a115.06,115.06,0,0,1-.91-15.85,58.44,58.44,0,0,1,.91-11.27,76.43,76.43,0,0,1,4.71-14.29c2.24-5.3,4.72-10.5,6.6-16A41.17,41.17,0,0,0,292,124.26a3.51,3.51,0,0,0-1.89-2.87,16.26,16.26,0,0,0-12.9-1.35,4.06,4.06,0,0,0-2.59,2.35,21.86,21.86,0,0,0-2.18,8.47,149.05,149.05,0,0,0,.34,17.93,105.31,105.31,0,0,1,.21,18.54,22.73,22.73,0,0,1-2.74,9.11,3.25,3.25,0,0,1-1.08,1.4,6.93,6.93,0,0,1-.22-2.11c-.09-6.24-.18-12.48-.35-18.72-.23-8.55-.26-17.1-1.59-25.57-.32-2.07-.62-4.15-1-6.21-.34-1.77-1.17-2.63-2.59-2.7a24.6,24.6,0,0,0-5.49.18c-3.35.57-6.71,1.14-10.07,1.64a8.09,8.09,0,0,1-4.47-.53,2.77,2.77,0,0,1-1.81-2c-.45-2.5.26-4.49,3.22-5.2a14.44,14.44,0,0,1,3.43-.4c3.82,0,7.65,0,11.48,0a17.19,17.19,0,0,0,5.55-1,6.57,6.57,0,0,0,4.59-5.13,15.42,15.42,0,0,0,.25-2,7,7,0,0,0-2.82-6.32,17.77,17.77,0,0,0-5.56-2.85,43.72,43.72,0,0,0-14.44-1.63,22,22,0,0,0-6.77,1.22,6.2,6.2,0,0,0-4.31,5.13c-.14.77-.22,1.55-.32,2.33a13.13,13.13,0,0,1-1.17,4.06c-.81,1.66-.8,1.66-2.69,1.52-.31,0-.63,0-.94,0-4.7-.38-9.43-.36-14.09-1.23a23.17,23.17,0,0,1-6.43-1.92,8.42,8.42,0,0,1-4.95-8.09,11.17,11.17,0,0,1,5-9.17A21.48,21.48,0,0,1,223,86.92a57.64,57.64,0,0,1,13.24,1.44c7.29,1.44,14.52,3.18,21.95,3.76a71.79,71.79,0,0,0,10.05.43,20.75,20.75,0,0,0,6.13-1.23,7.2,7.2,0,0,0,4.54-4.88c.39-1.27.1-1.76-1.2-2a7.16,7.16,0,0,0-4,.44,21.11,21.11,0,0,1-4.31,1.41A38.83,38.83,0,0,1,257,86.12c-5.08-.71-10-2.06-15-3.14a67.08,67.08,0,0,0-14.8-1.65,54.77,54.77,0,0,0-8.75.9,30.44,30.44,0,0,0-13.22,5.44,15.06,15.06,0,0,0-6.07,8.9c-1.56,6.76.45,12.1,6.55,15.66a30.4,30.4,0,0,0,6.16,2.7,63.26,63.26,0,0,0,9.52,1.94,16.78,16.78,0,0,0,5.15.07,16,16,0,0,1,5.17-.12,5.11,5.11,0,0,1,3.09,1.7,1.7,1.7,0,0,1,.45,1.45,6.12,6.12,0,0,1-3.41,5c-1.14.53-2.32,1-3.5,1.38a12.86,12.86,0,0,0-5.79,4.17,30.81,30.81,0,0,0-4.68,8,56.73,56.73,0,0,0-3.53,14.13,118.17,118.17,0,0,0-1.09,15.37A191.27,191.27,0,0,0,215,192.08c1,7.53,2.22,15,3.85,22.45,2.21,10.07,5.2,19.84,10.06,29a39.81,39.81,0,0,1,3.33,8.46,9.29,9.29,0,0,1,.4,4.18c-1.9-.54-3.76-1-5.59-1.61-4.58-1.44-9.09-3.14-13.83-4a24.13,24.13,0,0,0-8.88-.51,8.08,8.08,0,0,0-6.66,5.28,14,14,0,0,0-.59,7.43,6.87,6.87,0,0,0,3.9,5.36,13.17,13.17,0,0,0,3.56,1.17c3.49.63,6.92.08,10.31-.54a156.64,156.64,0,0,0,16.1-4.05,12.8,12.8,0,0,1,1.82-.47c.68-.09.88.18.61.82a15.17,15.17,0,0,1-2.13,3.65c-.82,1-1.64,2.05-2.41,3.11a8.78,8.78,0,0,0-1.76,4.48,22.77,22.77,0,0,0,0,5,16.52,16.52,0,0,0,5.28,10.43c4.52,4.13,14.46,4.24,17.11-4.7a26.22,26.22,0,0,0,.75-12A27.87,27.87,0,0,0,247.87,267.09Zm55.71-85.9c-.14,3.87.18,8.74.26,13.61.17,10,.34,20,.75,30,.09,2.14.08,4.3.21,6.44a7.36,7.36,0,0,0,2.14,5.25c.32.3.68.76,1.21.5s.38-.71.38-1.12c0-3.31.43-6.59.6-9.89.48-9.42,1.11-18.84,1.42-28.27.44-13.16.71-26.31.46-39.47-.14-7.65-.56-15.3-.94-22.94-.18-3.66-.57-7.31-.86-11,0-.3.05-.64-.25-.86a2.51,2.51,0,0,0-2.88.65c-.47.68-.33,1.68-.72,2.16-1,1.27-.78,2.68-.83,4-.18,4.87-.26,9.74-.35,14.62C304,156.7,303.79,168.44,303.58,181.19Zm1.87,59.95c0,.23,0,.6.06,1,.25,1.69,1.08,2.23,2.76,1.78a5.26,5.26,0,0,0,1.16-.45,2.63,2.63,0,0,0,1-2.92c-.19-1-1-1-1.69-1a16.25,16.25,0,0,0-1.72-.08C305.52,239.37,305.43,239.48,305.45,241.14Z"/><path class="cls-8" d="M167,212.57v139c0,1.25,0,2.51-.06,3.77s0,1.17-1.15.94c-4.2-.87-8.35-1.94-12.51-2.95-13.07-3.18-26-6.94-38.65-11.37-16.89-5.89-33.6-12.25-49.68-20.16-10.18-5-20-10.69-28.73-17.93-9.87-8.14-18-17.67-23.18-29.55a67.32,67.32,0,0,1-5.18-18.86A261.84,261.84,0,0,1,6.34,221c.13-9.12.34-18.25.68-27.37.45-11.95.52-23.91.66-35.86.19-16.11.09-32.21.11-48.32,0-10.75,0-21.51,0-32.26q0-3.54,0-7.08c0-1.54,0-1.54,1.62-1.56.47,0,.94,0,1.42,0H163.44c.74,0,1.47,0,2.21-.06,1.23-.06,1.3,0,1.31,1.3,0,2.15.07,4.3.07,6.45ZM116.73,234c.09-.16.1-.22.14-.24l1.39-.73c4.82-2.45,8.69-5.87,10.81-11,2.57-6.18,2-12-2.4-17.22-.57-.69-1.18-1.34-1.8-2-1.72-1.83-3.61-3.51-5.16-5.5-.67-.86-.61-1.11.4-1.43,3.57-1.14,5.94-3.64,7.71-6.79a17.94,17.94,0,0,0,2-9.88c-.23-5.65-3.51-9.95-8.93-11.29-.92-.22-1.35-.58-1.51-1.47a8.43,8.43,0,0,0-2.62-4.74c-4.13-3.93-9-5.26-14.48-3.66a7.7,7.7,0,0,0-5.63,6.32,12.86,12.86,0,0,0,6.07,13.32c4,2.32,8.18,2.86,12.24-.13a10.68,10.68,0,0,1,2.62-1.41,2.31,2.31,0,0,1,3.23,1.33,13.22,13.22,0,0,1,.73,2.23,5.83,5.83,0,0,1-2.5,6.72,13.61,13.61,0,0,1-4.69,2.15,72.48,72.48,0,0,1-14.46,1.86,20.78,20.78,0,0,0-3.43.35c-1,.21-1.26.48-1.23,1.48.07,2,.07,4,0,6-.06,1.22.11,1.39,1.3,1.41a49.21,49.21,0,0,1,12.81,2.2,22.37,22.37,0,0,1,8.78,4.74c4.09,3.6,5.86,11.62.73,16.78a17.72,17.72,0,0,1-3.14,2.6,27.41,27.41,0,0,1-9.35,3.52c-3.69.71-7.42.43-11.14.32-1,0-1.26-.35-1.4-1.35a46.43,46.43,0,0,1-.05-6.13q.06-19.12.07-38.25,0-15.1,0-30.22c0-1.7.08-1.8,1.58-1.82A102,102,0,0,1,121,154.59a71.59,71.59,0,0,1,23.66,10.17,77.74,77.74,0,0,1,11.29,9.52c.29.29.51.76,1.15.7-.79-3.25-1.86-6.31-2.77-9.42-3.56-12.22-7.07-24.45-11.33-36.45a117.43,117.43,0,0,0-9.41-20.71,31,31,0,0,0-7.61-8.72,14.06,14.06,0,0,0-4.18-2.45c-5.36-1.81-11.2.17-12.64,6.64a43,43,0,0,0-.79,4.49c-.33,2.76-.6,5.52-1,8.28a20.73,20.73,0,0,1-1.24,5,7.44,7.44,0,0,1-5.83,4.72,17,17,0,0,1-5.6-.28c-.9-.12-1.11-.54-1.11-1.35a5.23,5.23,0,0,1,1.83-4.17,19,19,0,0,1,4.24-2.69,9.88,9.88,0,0,0,4.84-5.35,22.12,22.12,0,0,0,1.66-10.14,13.39,13.39,0,0,0-5.47-10.18,16.12,16.12,0,0,0-12.21-2.94A15.2,15.2,0,0,0,79,93.82c-4.54,4.82-5.35,10.52-3.63,16.68.62,2.24,2.33,3.82,4.12,5.24a43.15,43.15,0,0,1,4.19,3.57,7.86,7.86,0,0,1,2.35,5.5c0,1-.21,1.29-1.25,1.45-.56.08-1.14.1-1.71.18-4,.61-6.85-.94-8.51-4.61a22.23,22.23,0,0,1-1.52-5.6c-.54-3.41-.81-6.87-1.55-10.25a18.6,18.6,0,0,0-1.93-5.63,7.14,7.14,0,0,0-5.18-3.7,12.4,12.4,0,0,0-11.49,3.62,36.54,36.54,0,0,0-6.85,10.66c-2.18,4.77-3.74,9.78-5.63,14.67-3.81,9.86-7.74,19.69-11.3,29.65-2,5.67-3.94,11.38-5.52,17.2a2.74,2.74,0,0,0-.11,2c.1.21.11.53.45.58s.46-.2.61-.41a27.63,27.63,0,0,1,2.1-2.74,56.09,56.09,0,0,1,21.81-14.45A81.1,81.1,0,0,1,69,152.64a124.45,124.45,0,0,1,15.56-.55c1.29,0,1.39.13,1.46,1.28.45,6.76.62,13.52.76,20.29.21,9.6,0,19.2.06,28.8,0,8.61-.41,17.2-.68,25.8,0,.31-.06.62-.07.94,0,.85-.52,1.2-1.31,1.23-.26,0-.52,0-.78,0a49.15,49.15,0,0,1-12.42-1.66,21.57,21.57,0,0,1-9.87-5.56c-4.83-4.91-4.1-13.71,1.23-17.57a25.3,25.3,0,0,1,8.2-3.83,79.14,79.14,0,0,1,13.15-2.18c1.18-.11,1.22-.14,1.24-1.31,0-2,0-4,0-6,0-1.07-.19-1.3-1.23-1.47a29.77,29.77,0,0,0-3.12-.35,113.48,113.48,0,0,1-12.34-1.32,21.4,21.4,0,0,1-7.11-2.38,5.74,5.74,0,0,1-2.78-7c.23-.75.45-1.51.7-2.25.45-1.36,1-1.71,2.46-1.68a5.72,5.72,0,0,1,3.53,1.52c3.15,2.58,6.61,2.68,10.2,1.21,4.92-2,8-7.73,7.29-13.4a8.15,8.15,0,0,0-5.41-6.95,12.56,12.56,0,0,0-3.51-.78,9.46,9.46,0,0,0-9,3.72,31.9,31.9,0,0,0-2.33,3.55A12.21,12.21,0,0,1,55.36,171a5.58,5.58,0,0,0-2.92,1.76,12.22,12.22,0,0,0-2.83,10.41,13.23,13.23,0,0,0,3.85,6.73,55.08,55.08,0,0,0,6,5.26c.45.36.9.72,1.34,1.1s.38.81-.14,1.13l-.8.49a17.5,17.5,0,0,0-7.31,8.78,22,22,0,0,0-1.23,12.36c1.33,6.73,4.58,12.11,11.15,15,.36.15.85.18,1,.68-1.18.67-2.38,1.3-3.53,2-11.28,7.17-13.8,21-5.82,31.72a25.72,25.72,0,0,0,13.37,9.18c.43.13.92.13,1.13.6-.23.49-.65.64-1,.89-2.35,1.76-4.84,3.34-7,5.3a15.87,15.87,0,0,0-4.49,6.36,13.76,13.76,0,0,0-1.08,4.56,1.74,1.74,0,0,0,.67,1.68c2.74,1.67,4.52,1.92,6.69-.45a6.8,6.8,0,0,0,.78-1c.72-1.09,1.47-2.17,2.12-3.31a16.28,16.28,0,0,1,6.38-6.13,45.61,45.61,0,0,1,6.32-2.79,43.84,43.84,0,0,0,6.15-2.74,2,2,0,0,0,1.2-2c0-2.1,0-4.2.06-6.3,0-1-.17-1.16-1.17-1.24a69.3,69.3,0,0,1-13.12-2.28,27.43,27.43,0,0,1-9.5-4.38A11.27,11.27,0,0,1,57,255.91c-.27-4.15,1.63-7.27,4.77-9.74a24.4,24.4,0,0,1,8.14-4,70.86,70.86,0,0,1,15.79-2.52c1-.06,1.14.12,1.24,1.32a151.93,151.93,0,0,1-.14,20.13c-.41,7.44-.88,14.87-.76,22.33a53.46,53.46,0,0,0,2,14.28c.33,1.14.44,1.26,1.59,1.34.32,0,.63,0,.95,0,1.26,0,1.69-.34,1.91-1.61.39-2.22.74-4.44,1-6.68a107,107,0,0,0,.43-15.4c-.08-7.4-.51-14.78-.45-22.18a87,87,0,0,1,.82-12.08c.23-1.51.39-1.58,1.84-1.36.41.06.83.1,1.25.14a71.73,71.73,0,0,1,12.66,2.22A26.52,26.52,0,0,1,119,246.3a11.36,11.36,0,0,1-.16,18.47,21.44,21.44,0,0,1-6.26,3.2,70.1,70.1,0,0,1-15.83,3.1c-1.49.13-1.51.15-1.53,1.56,0,1.73,0,3.46,0,5.19a2.37,2.37,0,0,0,1.09,2.11,34.32,34.32,0,0,0,7.21,4.12,67.57,67.57,0,0,1,6.37,3,15.46,15.46,0,0,1,6.13,6.16,19.37,19.37,0,0,0,1.93,3.05c2,2.46,3.56,2.74,6.28,1.18a2,2,0,0,0,1.17-2,12.86,12.86,0,0,0-3.26-8.16,32.19,32.19,0,0,0-4.66-4.22,38.4,38.4,0,0,1-5-4.52c-1-1.13-1-1.21.34-1.79a56.51,56.51,0,0,0,9.86-5.18,24.61,24.61,0,0,0,6.71-6.55,17,17,0,0,0-.46-19.61,29,29,0,0,0-4.21-4.23c-2.06-1.78-4.32-3.33-6.27-5.25A8,8,0,0,1,116.73,234Z"/><path class="cls-9" d="M170.49,7.6H327.58c1.42,0,2.84,0,4.25,0,1.22,0,1.25,0,1.25,1.23,0,3.46,0,6.92,0,10.39l0,39.51c0,2.09,0,2.09-2,2.09H9.77c-2,0-2,0-2-2q0-23.07,0-46.12c0-1.16-.06-2.31-.15-3.46C7.58,7.94,8,7.62,9.3,7.6H170.49Zm27.72,41.82c-.13-.31-.22-.5-.29-.7q-6.64-17.46-13.27-34.93c-.52-1.36-.59-1.44-2-1.45l-7.24,0c-1.69,0-1.77.08-1.8,1.77V55.17c0,1.68.16,1.82,1.79,1.79,1.15,0,2.3,0,3.46,0,1.6,0,1.65,0,1.65-1.67q0-16.77,0-33.53v-.93a7,7,0,0,1,.91,1.76q3,7.68,6,15.37,3.47,8.85,7,17.68c.53,1.33.54,1.33,1.94,1.34h3.15c1.78,0,1.79,0,2.46-1.74,4.22-10.77,8.46-21.53,12.87-32.23a2.3,2.3,0,0,1,.86-1.42v33c0,.37,0,.74,0,1.1.06,1.09.25,1.27,1.32,1.27s2.19-.17,3.3-.07c2.14.18,2.19.09,2.19-2.08V14.35c0-.32,0-.63,0-.95.05-.81-.34-1.1-1.13-1.09-2.36,0-4.73,0-7.09,0a1.38,1.38,0,0,0-1.51,1c-.53,1.42-1.16,2.81-1.72,4.22L199,48A2.68,2.68,0,0,1,198.21,49.42Zm-47.7-12.75a22.87,22.87,0,0,0,7.15-2.35,11,11,0,0,0,5.43-6.45,11.81,11.81,0,0,0-7.92-14.57,20.46,20.46,0,0,0-6.36-.89c-8.23-.07-16.46-.07-24.7-.09-1.34,0-1.43.12-1.48,1.41,0,.26,0,.52,0,.79V54.79c0,.37,0,.74,0,1.1,0,.75.39,1,1.08,1,1.63-.1,3.25-.07,4.87,0,.77,0,1.16-.36,1.14-1.16s0-1.67,0-2.51q0-7.24,0-14.48c0-1.42.14-1.56,1.52-1.52,2.88.08,5.76,0,8.64.19a9.62,9.62,0,0,1,5.55,2.28,28.42,28.42,0,0,1,4,4.23c3,3.83,5.88,7.79,8.67,11.78a2.56,2.56,0,0,0,2.36,1.22c2,0,4.09,0,6.13,0,.33,0,.65,0,.84-.28s0-.58-.24-.82c-3.3-4.27-6.27-8.79-9.69-13a20.51,20.51,0,0,0-6.62-5.7C150.68,37.09,150.58,37,150.51,36.67ZM233,34.56h0V52.19c0,1.16-.06,2.31,0,3.46,0,1,.28,1.17,1.24,1.25.26,0,.53,0,.79,0h34.47a8.15,8.15,0,0,0,1.1,0c.46,0,.78-.27.77-.8,0-1.31,0-2.62,0-3.94a.7.7,0,0,0-.79-.77H242.44c-.37,0-.73,0-1.1,0-.82,0-1.13-.37-1.11-1.15s0-1.68,0-2.52c0-3.25,0-6.5,0-9.75,0-1.16.13-1.26,1.24-1.32h23.29c.84,0,1.68,0,2.52,0,.68,0,1-.3,1-1.06,0-1.1,0-2.2,0-3.3s-.15-1.15-1.21-1.21-2.1,0-3.15,0c-7.45,0-14.9.06-22.35.07-1.3,0-1.36-.09-1.36-1.5q0-5,0-10.07c0-1.58,0-1.59,1.57-1.59H269c.68,0,1.1-.28,1.1-1,0-1.21,0-2.42,0-3.62a.93.93,0,0,0-1-1c-.42,0-.84,0-1.26,0H239.61c-1.73,0-3.46,0-5.19,0-1,0-1.29.3-1.37,1.3,0,.37,0,.74,0,1.1Zm-157.84,0v20.3c0,2,0,2,2,2h34c.42,0,.84,0,1.26,0a.89.89,0,0,0,1-1c0-1.15,0-2.3,0-3.46,0-.68-.28-1.1-1-1.09-.42,0-.84,0-1.26,0l-13.06,0H83.94c-1.72,0-1.72,0-1.73-1.78,0-2.15,0-4.3,0-6.45,0-1.79,0-3.57,0-5.35,0-.78.3-1.2,1.11-1.17h24.86c.42,0,.84,0,1.26,0,.75,0,1-.38,1-1.08s-.06-1.67,0-2.51c0-1.82,0-1.93-1.9-1.95h-1.1l-18.73.08c-1.73,0-3.46,0-5.19,0-1.08,0-1.25-.2-1.25-1.31,0-3.52,0-7,0-10.55,0-1.21.08-1.25,1.23-1.29.37,0,.74,0,1.1,0l23.92,0c.9,0,1.79,0,2.68,0s1.17-.32,1.17-1.11c0-1.15,0-2.3,0-3.45,0-.68-.3-1.1-1-1.09h-.79l-33.2,0a10.62,10.62,0,0,0-1.26,0,.86.86,0,0,0-.79.84c0,.47,0,.94,0,1.41Zm224,23a30,30,0,0,0,5.55-.31,20.71,20.71,0,0,0,10.21-4.5c4.71-3.93,6.05-12.68-.71-17.4A18,18,0,0,0,311.81,34a27.87,27.87,0,0,0-5.17-1.83c-3.83-1-7.77-1.61-11.63-2.54a21,21,0,0,1-5.63-1.88,4.72,4.72,0,0,1-1.13-7.6,8,8,0,0,1,4.31-2.46,26.47,26.47,0,0,1,10.15-.22c4,.78,6.93,2.91,7.68,7.21.15.87.57,1,1.3.91a35.62,35.62,0,0,1,4.38-.38c1.07,0,1.52-.59,1.25-1.67a13.48,13.48,0,0,0-3.58-6.87A15.5,15.5,0,0,0,307.42,13a31.26,31.26,0,0,0-16.89-.38,15.48,15.48,0,0,0-6.34,3c-3.28,2.77-4.87,6.3-3.93,10.6A10.21,10.21,0,0,0,285.84,33a31.52,31.52,0,0,0,7.38,2.57c4,1,8.1,1.64,12.06,2.81A17.07,17.07,0,0,1,309.19,40a5.36,5.36,0,0,1,1.32,8.47,8.67,8.67,0,0,1-4.63,2.82,24.55,24.55,0,0,1-13.77-.47c-3.9-1.33-6.48-3.76-7.17-7.93-.14-.82-.56-1-1.3-.95-1.31.11-2.62.19-3.92.28-1.6.13-1.9.52-1.63,2.12a6.06,6.06,0,0,0,.16.61,15,15,0,0,0,9.46,10.77A27.59,27.59,0,0,0,299.18,57.64ZM24,34.66h0v4.88c0,5.25,0,10.49,0,15.74,0,1.5.17,1.69,1.61,1.61s2.61,0,3.92,0S31,56.77,31,55.38q0-8.73,0-17.47C31,36.1,31.08,36,33,36h.79c7,0,13.95,0,20.93,0,2.41,0,2.42,0,2.41,2.39,0,5.61,0,11.22,0,16.84,0,1.6.23,1.82,1.84,1.72a28.37,28.37,0,0,1,3.45,0c1.79.11,1.9,0,1.9-1.89q0-20.37,0-40.76c0-.26,0-.52,0-.78,0-.79-.28-1.16-1.1-1.15-1.63,0-3.25,0-4.88,0a1.06,1.06,0,0,0-1.21,1.12c0,.37,0,.74,0,1.1q0,7.4,0,14.8c0,1.23,0,1.24-1.23,1.24H32.72c-.21,0-.42,0-.63,0-.74,0-1-.38-1-1.07V14.55c0-.42,0-.84,0-1.25,0-.61-.32-1-1-1H25c-.72,0-1,.4-1.05,1.09,0,.37,0,.73,0,1.1Z"/><path class="cls-10" d="M247.87,267.09a27.87,27.87,0,0,1,2.3,7.93,26.22,26.22,0,0,1-.75,12c-2.65,8.94-12.59,8.83-17.11,4.7A16.52,16.52,0,0,1,227,281.26a22.77,22.77,0,0,1,0-5,8.78,8.78,0,0,1,1.76-4.48c.77-1.06,1.59-2.09,2.41-3.11a15.17,15.17,0,0,0,2.13-3.65c.27-.64.07-.91-.61-.82a12.8,12.8,0,0,0-1.82.47,156.64,156.64,0,0,1-16.1,4.05c-3.39.62-6.82,1.17-10.31.54a13.17,13.17,0,0,1-3.56-1.17,6.87,6.87,0,0,1-3.9-5.36,14,14,0,0,1,.59-7.43,8.08,8.08,0,0,1,6.66-5.28,24.13,24.13,0,0,1,8.88.51c4.74.9,9.25,2.6,13.83,4,1.83.58,3.69,1.07,5.59,1.61a9.29,9.29,0,0,0-.4-4.18,39.81,39.81,0,0,0-3.33-8.46c-4.86-9.15-7.85-18.92-10.06-29-1.63-7.43-2.82-14.92-3.85-22.45a191.27,191.27,0,0,1-1.71-24.14,118.17,118.17,0,0,1,1.09-15.37,56.73,56.73,0,0,1,3.53-14.13,30.81,30.81,0,0,1,4.68-8,12.86,12.86,0,0,1,5.79-4.17c1.18-.42,2.36-.85,3.5-1.38a6.12,6.12,0,0,0,3.41-5,1.7,1.7,0,0,0-.45-1.45,5.11,5.11,0,0,0-3.09-1.7,16,16,0,0,0-5.17.12,16.78,16.78,0,0,1-5.15-.07,63.26,63.26,0,0,1-9.52-1.94,30.4,30.4,0,0,1-6.16-2.7c-6.1-3.56-8.11-8.9-6.55-15.66a15.06,15.06,0,0,1,6.07-8.9,30.44,30.44,0,0,1,13.22-5.44,54.77,54.77,0,0,1,8.75-.9A67.08,67.08,0,0,1,242,83c5,1.08,10,2.43,15,3.14a38.83,38.83,0,0,0,12.36.18,21.11,21.11,0,0,0,4.31-1.41,7.16,7.16,0,0,1,4-.44c1.3.23,1.59.72,1.2,2a7.2,7.2,0,0,1-4.54,4.88,20.75,20.75,0,0,1-6.13,1.23,71.79,71.79,0,0,1-10.05-.43c-7.43-.58-14.66-2.32-21.95-3.76A57.64,57.64,0,0,0,223,86.92a21.48,21.48,0,0,0-12.46,4.15,11.17,11.17,0,0,0-5,9.17,8.42,8.42,0,0,0,4.95,8.09,23.17,23.17,0,0,0,6.43,1.92c4.66.87,9.39.85,14.09,1.23.31,0,.63,0,.94,0,1.89.14,1.88.14,2.69-1.52a13.13,13.13,0,0,0,1.17-4.06c.1-.78.18-1.56.32-2.33a6.2,6.2,0,0,1,4.31-5.13,22,22,0,0,1,6.77-1.22,43.72,43.72,0,0,1,14.44,1.63,17.77,17.77,0,0,1,5.56,2.85,7,7,0,0,1,2.82,6.32,15.42,15.42,0,0,1-.25,2,6.57,6.57,0,0,1-4.59,5.13,17.19,17.19,0,0,1-5.55,1c-3.83,0-7.66,0-11.48,0a14.44,14.44,0,0,0-3.43.4c-3,.71-3.67,2.7-3.22,5.2a2.77,2.77,0,0,0,1.81,2,8.09,8.09,0,0,0,4.47.53c3.36-.5,6.72-1.07,10.07-1.64a24.6,24.6,0,0,1,5.49-.18c1.42.07,2.25.93,2.59,2.7.4,2.06.7,4.14,1,6.21,1.33,8.47,1.36,17,1.59,25.57.17,6.24.26,12.48.35,18.72a6.93,6.93,0,0,0,.22,2.11,3.25,3.25,0,0,0,1.08-1.4,22.73,22.73,0,0,0,2.74-9.11,105.31,105.31,0,0,0-.21-18.54,149.05,149.05,0,0,1-.34-17.93,21.86,21.86,0,0,1,2.18-8.47,4.06,4.06,0,0,1,2.59-2.35,16.26,16.26,0,0,1,12.9,1.35,3.51,3.51,0,0,1,1.89,2.87,41.17,41.17,0,0,1-2.17,18.57c-1.88,5.46-4.36,10.66-6.6,16a76.43,76.43,0,0,0-4.71,14.29,58.44,58.44,0,0,0-.91,11.27,115.06,115.06,0,0,0,.91,15.85c.39,3,.52,6,.7,8.94.32,5.13.73,10.25.7,15.4a70,70,0,0,1-.54,8.31c-.46,3.73.3,4.94,3.94,6.17a23.86,23.86,0,0,1,4.25,1.58,4,4,0,0,1,2.2,2.72c.25,1.2.1,1.54-1.07,1.79a13.53,13.53,0,0,1-6.54.1,9.78,9.78,0,0,1-6.29-5.31,26.13,26.13,0,0,1-2.23-7.33c-1.08-6.08-.93-12.22-.9-18.36,0-6.76.25-13.53,0-20.29,0-1.42-.38-2.79-.42-4.29-.71.23-.82.82-1,1.32a30.49,30.49,0,0,0-2.05,8.52c-.72,5.7-.33,11.42-.33,17.13,0,4.88.17,9.76-.3,14.63a31.72,31.72,0,0,1-2.27,9.43c-1,2.3-2.62,3.26-5.11,3.4a12.68,12.68,0,0,1-11.81-5.81,5.91,5.91,0,0,1-1-3.09c-.47-7.1,1.58-13.56,4.93-19.69,1.85-3.4,3.78-6.76,5.55-10.21a46.41,46.41,0,0,0,4.7-16.36,119.38,119.38,0,0,0,.22-21.22c-.59-8.37-1.25-16.73-1.74-25.11a38.79,38.79,0,0,1,.38-7.84,9.26,9.26,0,0,0-.57-4.94,4.22,4.22,0,0,0-1.9-2.22c-1-.53-1.17-.52-1.87.29a6.75,6.75,0,0,0-1.5,3.89,53.29,53.29,0,0,0-.29,6.44,6.4,6.4,0,0,1-.93,3.44,3.88,3.88,0,0,1-3.32,2.06c-.95,0-1.89,0-2.83,0a4.94,4.94,0,0,1-4.59-4,24.12,24.12,0,0,1-.22-6.89c.09-1.19.12-2.37.19-3.78a5.34,5.34,0,0,0-2.89,3.35,13.74,13.74,0,0,0-.64,5.59c.09,1.56.26,3.13.45,4.69a184.05,184.05,0,0,1,1.23,19.77c.14,9.76.31,19.51.35,29.27q.06,14.08-.13,28.17c-.11,8.65-.35,17.3-.56,26a44.78,44.78,0,0,1-.8,7,5.38,5.38,0,0,0,1.35,4.66c1.05,1.24,1.69,1.36,3.17.71q6.11-2.68,12.42-4.81a31.41,31.41,0,0,1,11.73-1.75,16.31,16.31,0,0,1,9.27,3.45,5.32,5.32,0,0,1,1.9,4.14,27.28,27.28,0,0,1-.5,7,3.49,3.49,0,0,1-1.86,2.57,18.8,18.8,0,0,1-9.11,2.61,53.12,53.12,0,0,1-13.78-2c-2.38-.61-4.73-1.34-7-2.15C248.78,267.11,248.42,266.84,247.87,267.09ZM234.41,128.72a13.39,13.39,0,0,0-3.35,2.13c-3.75,3.14-6,7.25-7.51,11.78a76.42,76.42,0,0,0-3.48,19.43,151.67,151.67,0,0,0,.08,18.71c.15,2.93.36,5.87.67,8.79q.87,8.28,2.37,16.48a161.85,161.85,0,0,0,7.36,28.06,42.13,42.13,0,0,0,4.11,8.46c.17.25.24.76.81.54-.1-18.46.21-36.92.12-55.38-.1-19.2-.34-38.39-.88-57.58A2.63,2.63,0,0,0,234.41,128.72Zm11.09,150a13.69,13.69,0,0,0-2-7.56,4.92,4.92,0,0,0-6.59-1.77,6.44,6.44,0,0,0-2.92,3,12.27,12.27,0,0,0-1.47,5.73c-.06,2.92.31,5.76,2.11,8.21,2.67,3.66,7.39,3.25,9.42-.81A16.24,16.24,0,0,0,245.5,278.76Zm5.15-166.08a20.65,20.65,0,0,0,6.26-.58A11.08,11.08,0,0,0,263,109a1.65,1.65,0,0,0,.06-2.62,9.64,9.64,0,0,0-4.09-2.82,24.86,24.86,0,0,0-11.11-1.4,16.84,16.84,0,0,0-4.6.91,1.69,1.69,0,0,0-1.2,1.11,29.34,29.34,0,0,0-1.39,5.14c-.21,1.38,0,1.75,1.38,2.17A24.56,24.56,0,0,0,250.65,112.68Zm11.62,96.39c-.58,1.24-1,2.22-1.49,3.18a104.32,104.32,0,0,0-5.51,12.31,19.06,19.06,0,0,0-1.2,7.55,6.13,6.13,0,0,0,3.87,5.62c.63.27,1.29.43,1.92.67,1.38.53,1.43.41,1.79-1a86.24,86.24,0,0,0,1.84-10.35,52.82,52.82,0,0,0,.57-9.4A20.79,20.79,0,0,0,262.27,209.07Zm17.45-56a4.47,4.47,0,0,0,.36-.56c2-5.62,4.28-11.14,5.74-16.94a61.75,61.75,0,0,0,1.27-7.27c.08-.61.25-1.31-.39-1.73a5.85,5.85,0,0,0-4.44-1.14,3.91,3.91,0,0,0-2.69,2.22,18.06,18.06,0,0,0-1.86,7.73,51.1,51.1,0,0,0,.67,11.91A25.14,25.14,0,0,0,279.72,153.1Zm-13.6,112.53a51.65,51.65,0,0,0,8.28-.77c.88-.17,1.12-.54,1.08-1.36,0-1.1,0-2.2,0-3.3,0-1.47,0-1.44-1.4-2.07a19.17,19.17,0,0,0-7.83-1.24,20.42,20.42,0,0,0-9,1.93A11.65,11.65,0,0,0,253,262c-.76.92-.73,1.14.33,1.59a20.42,20.42,0,0,0,2.66.93A44.19,44.19,0,0,0,266.12,265.63Zm-55.57-1.27a22.75,22.75,0,0,0,12.71-3.54c1.56-1,1.53-1.24-.1-2.13a26.73,26.73,0,0,0-14.62-3.32,8.29,8.29,0,0,0-3.71,1.14,5.24,5.24,0,0,0-2.12,2.25,2.5,2.5,0,0,0,.43,3.16,7.26,7.26,0,0,0,3.14,2A22.39,22.39,0,0,0,210.55,264.36ZM249,136.8c0-.08,0,.18,0,.44,0,.51-.15,1,.42,1.39a1.61,1.61,0,0,0,1.63-.18,2,2,0,0,0,1-1.31,4.75,4.75,0,0,0-.12-3.2c-.23-.56-.56-1-1.23-1s-1,.48-1.29,1C248.91,134.68,249.05,135.59,249,136.8Z"/><path class="cls-11" d="M303.58,181.19c.21-12.75.4-24.49.6-36.23.09-4.88.17-9.75.35-14.62.05-1.35-.2-2.76.83-4,.39-.48.25-1.48.72-2.16a2.51,2.51,0,0,1,2.88-.65c.3.22.22.56.25.86.29,3.66.68,7.31.86,11,.38,7.64.8,15.29.94,22.94.25,13.16,0,26.31-.46,39.47-.31,9.43-.94,18.85-1.42,28.27-.17,3.3-.61,6.58-.6,9.89,0,.41.06.91-.38,1.12s-.89-.2-1.21-.5a7.36,7.36,0,0,1-2.14-5.25c-.13-2.14-.12-4.3-.21-6.44-.41-10-.58-20-.75-30C303.76,189.93,303.44,185.06,303.58,181.19Z"/><path class="cls-12" d="M305.45,241.14c0-1.66.07-1.77,1.54-1.76a16.25,16.25,0,0,1,1.72.08c.71.09,1.5,0,1.69,1a2.63,2.63,0,0,1-1,2.92,5.26,5.26,0,0,1-1.16.45c-1.68.45-2.51-.09-2.76-1.78C305.46,241.74,305.47,241.37,305.45,241.14Z"/><path class="cls-13" d="M116.73,234a8,8,0,0,0,1.65,2c2,1.92,4.21,3.47,6.27,5.25a29,29,0,0,1,4.21,4.23,17,17,0,0,1,.46,19.61,24.61,24.61,0,0,1-6.71,6.55,56.51,56.51,0,0,1-9.86,5.18c-1.33.58-1.36.66-.34,1.79a38.4,38.4,0,0,0,5,4.52,32.19,32.19,0,0,1,4.66,4.22,12.86,12.86,0,0,1,3.26,8.16,2,2,0,0,1-1.17,2c-2.72,1.56-4.27,1.28-6.28-1.18a19.37,19.37,0,0,1-1.93-3.05,15.46,15.46,0,0,0-6.13-6.16,67.57,67.57,0,0,0-6.37-3,34.32,34.32,0,0,1-7.21-4.12,2.37,2.37,0,0,1-1.09-2.11c0-1.73,0-3.46,0-5.19,0-1.41,0-1.43,1.53-1.56a70.1,70.1,0,0,0,15.83-3.1,21.44,21.44,0,0,0,6.26-3.2A11.36,11.36,0,0,0,119,246.3a26.52,26.52,0,0,0-8.91-4.16,71.73,71.73,0,0,0-12.66-2.22c-.42,0-.84-.08-1.25-.14-1.45-.22-1.61-.15-1.84,1.36a87,87,0,0,0-.82,12.08c-.06,7.4.37,14.78.45,22.18a107,107,0,0,1-.43,15.4c-.29,2.24-.64,4.46-1,6.68-.22,1.27-.65,1.58-1.91,1.61-.32,0-.63,0-.95,0-1.15-.08-1.26-.2-1.59-1.34a53.46,53.46,0,0,1-2-14.28c-.12-7.46.35-14.89.76-22.33A151.93,151.93,0,0,0,86.92,241c-.1-1.2-.22-1.38-1.24-1.32a70.86,70.86,0,0,0-15.79,2.52,24.4,24.4,0,0,0-8.14,4c-3.14,2.47-5,5.59-4.77,9.74a11.27,11.27,0,0,0,4.69,8.54,27.43,27.43,0,0,0,9.5,4.38,69.3,69.3,0,0,0,13.12,2.28c1,.08,1.18.23,1.17,1.24,0,2.1-.08,4.2-.06,6.3a2,2,0,0,1-1.2,2,43.84,43.84,0,0,1-6.15,2.74,45.61,45.61,0,0,0-6.32,2.79,16.28,16.28,0,0,0-6.38,6.13c-.65,1.14-1.4,2.22-2.12,3.31a6.8,6.8,0,0,1-.78,1c-2.17,2.37-4,2.12-6.69.45a1.74,1.74,0,0,1-.67-1.68,13.76,13.76,0,0,1,1.08-4.56,15.87,15.87,0,0,1,4.49-6.36c2.2-2,4.69-3.54,7-5.3.32-.25.74-.4,1-.89-.21-.47-.7-.47-1.13-.6a25.72,25.72,0,0,1-13.37-9.18c-8-10.71-5.46-24.55,5.82-31.72,1.15-.73,2.35-1.36,3.53-2-.15-.5-.64-.53-1-.68-6.57-2.89-9.82-8.27-11.15-15A22,22,0,0,1,52.6,206.7a17.5,17.5,0,0,1,7.31-8.78l.8-.49c.52-.32.62-.71.14-1.13s-.89-.74-1.34-1.1a55.08,55.08,0,0,1-6-5.26,13.23,13.23,0,0,1-3.85-6.73,12.22,12.22,0,0,1,2.83-10.41A5.58,5.58,0,0,1,55.36,171a12.21,12.21,0,0,0,7.55-6.22,31.9,31.9,0,0,1,2.33-3.55,9.46,9.46,0,0,1,9-3.72,12.56,12.56,0,0,1,3.51.78,8.15,8.15,0,0,1,5.41,6.95c.74,5.67-2.37,11.38-7.29,13.4-3.59,1.47-7.05,1.37-10.2-1.21A5.72,5.72,0,0,0,62.14,176c-1.45,0-2,.32-2.46,1.68-.25.74-.47,1.5-.7,2.25a5.74,5.74,0,0,0,2.78,7,21.4,21.4,0,0,0,7.11,2.38,113.48,113.48,0,0,0,12.34,1.32,29.77,29.77,0,0,1,3.12.35c1,.17,1.21.4,1.23,1.47,0,2,0,4,0,6,0,1.17-.06,1.2-1.24,1.31a79.14,79.14,0,0,0-13.15,2.18,25.3,25.3,0,0,0-8.2,3.83c-5.33,3.86-6.06,12.66-1.23,17.57a21.57,21.57,0,0,0,9.87,5.56A49.15,49.15,0,0,0,84,230.46c.26,0,.52,0,.78,0,.79,0,1.29-.38,1.31-1.23,0-.32.06-.63.07-.94.27-8.6.73-17.19.68-25.8-.05-9.6.15-19.2-.06-28.8-.14-6.77-.31-13.53-.76-20.29-.07-1.15-.17-1.26-1.46-1.28a124.45,124.45,0,0,0-15.56.55,81.1,81.1,0,0,0-20.57,4.78,56.09,56.09,0,0,0-21.81,14.45,27.63,27.63,0,0,0-2.1,2.74c-.15.21-.29.46-.61.41s-.35-.37-.45-.58a2.74,2.74,0,0,1,.11-2c1.58-5.82,3.5-11.53,5.52-17.2,3.56-10,7.49-19.79,11.3-29.65,1.89-4.89,3.45-9.9,5.63-14.67a36.54,36.54,0,0,1,6.85-10.66,12.4,12.4,0,0,1,11.49-3.62,7.14,7.14,0,0,1,5.18,3.7A18.6,18.6,0,0,1,71.5,106c.74,3.38,1,6.84,1.55,10.25a22.23,22.23,0,0,0,1.52,5.6c1.66,3.67,4.51,5.22,8.51,4.61.57-.08,1.15-.1,1.71-.18,1-.16,1.26-.42,1.25-1.45a7.86,7.86,0,0,0-2.35-5.5,43.15,43.15,0,0,0-4.19-3.57c-1.79-1.42-3.5-3-4.12-5.24-1.72-6.16-.91-11.86,3.63-16.68a15.2,15.2,0,0,1,9.45-4.54,16.12,16.12,0,0,1,12.21,2.94,13.39,13.39,0,0,1,5.47,10.18,22.12,22.12,0,0,1-1.66,10.14,9.88,9.88,0,0,1-4.84,5.35,19,19,0,0,0-4.24,2.69,5.23,5.23,0,0,0-1.83,4.17c0,.81.21,1.23,1.11,1.35a17,17,0,0,0,5.6.28,7.44,7.44,0,0,0,5.83-4.72,20.73,20.73,0,0,0,1.24-5c.38-2.76.65-5.52,1-8.28a43,43,0,0,1,.79-4.49c1.44-6.47,7.28-8.45,12.64-6.64a14.06,14.06,0,0,1,4.18,2.45,31,31,0,0,1,7.61,8.72A117.43,117.43,0,0,1,143,129.11c4.26,12,7.77,24.23,11.33,36.45.91,3.11,2,6.17,2.77,9.42-.64.06-.86-.41-1.15-.7a77.74,77.74,0,0,0-11.29-9.52A71.59,71.59,0,0,0,121,154.59a102,102,0,0,0-25.59-2.49c-1.5,0-1.58.12-1.58,1.82q0,15.11,0,30.22,0,19.13-.07,38.25a46.43,46.43,0,0,0,.05,6.13c.14,1,.41,1.32,1.4,1.35,3.72.11,7.45.39,11.14-.32a27.41,27.41,0,0,0,9.35-3.52,17.72,17.72,0,0,0,3.14-2.6c5.13-5.16,3.36-13.18-.73-16.78a22.37,22.37,0,0,0-8.78-4.74,49.21,49.21,0,0,0-12.81-2.2c-1.19,0-1.36-.19-1.3-1.41.09-2,.09-4,0-6,0-1,.22-1.27,1.23-1.48a20.78,20.78,0,0,1,3.43-.35,72.48,72.48,0,0,0,14.46-1.86,13.61,13.61,0,0,0,4.69-2.15,5.83,5.83,0,0,0,2.5-6.72,13.22,13.22,0,0,0-.73-2.23,2.31,2.31,0,0,0-3.23-1.33,10.68,10.68,0,0,0-2.62,1.41c-4.06,3-8.23,2.45-12.24.13a12.86,12.86,0,0,1-6.07-13.32,7.7,7.7,0,0,1,5.63-6.32c5.53-1.6,10.35-.27,14.48,3.66a8.43,8.43,0,0,1,2.62,4.74c.16.89.59,1.25,1.51,1.47,5.42,1.34,8.7,5.64,8.93,11.29a17.94,17.94,0,0,1-2,9.88c-1.77,3.15-4.14,5.65-7.71,6.79-1,.32-1.07.57-.4,1.43,1.55,2,3.44,3.67,5.16,5.5.62.65,1.23,1.3,1.8,2,4.37,5.24,5,11,2.4,17.22-2.12,5.08-6,8.5-10.81,11l-1.39.73S116.82,233.83,116.73,234Z"/><path class="cls-10" d="M198.21,49.42A2.68,2.68,0,0,0,199,48l11.93-30.39c.56-1.41,1.19-2.8,1.72-4.22a1.38,1.38,0,0,1,1.51-1c2.36,0,4.73,0,7.09,0,.79,0,1.18.28,1.13,1.09,0,.32,0,.63,0,.95V54.8c0,2.17,0,2.26-2.19,2.08-1.11-.1-2.2.07-3.3.07s-1.26-.18-1.32-1.27c0-.36,0-.73,0-1.1v-33a2.3,2.3,0,0,0-.86,1.42c-4.41,10.7-8.65,21.46-12.87,32.23-.67,1.74-.68,1.74-2.46,1.74h-3.15c-1.4,0-1.41,0-1.94-1.34q-3.48-8.84-7-17.68-3-7.68-6-15.37a7,7,0,0,0-.91-1.76v.93q0,16.77,0,33.53c0,1.67-.05,1.69-1.65,1.67-1.16,0-2.31,0-3.46,0-1.63,0-1.77-.11-1.79-1.79V14.09c0-1.69.11-1.77,1.8-1.77l7.24,0c1.45,0,1.52.09,2,1.45q6.63,17.48,13.27,34.93C198,48.92,198.08,49.11,198.21,49.42Z"/><path class="cls-11" d="M150.51,36.67c.07.33.17.42.32.49a20.51,20.51,0,0,1,6.62,5.7c3.42,4.18,6.39,8.7,9.69,13,.19.24.46.48.24.82s-.51.28-.84.28c-2,0-4.09,0-6.13,0a2.56,2.56,0,0,1-2.36-1.22c-2.79-4-5.64-8-8.67-11.78a28.42,28.42,0,0,0-4-4.23,9.62,9.62,0,0,0-5.55-2.28c-2.88-.24-5.76-.11-8.64-.19-1.38,0-1.52.1-1.52,1.52q0,7.24,0,14.48c0,.84,0,1.67,0,2.51s-.37,1.2-1.14,1.16c-1.62-.06-3.24-.09-4.87,0-.69,0-1.09-.26-1.08-1,0-.36,0-.73,0-1.1V14.52c0-.27,0-.53,0-.79.05-1.29.14-1.41,1.48-1.41,8.24,0,16.47,0,24.7.09a20.46,20.46,0,0,1,6.36.89,11.81,11.81,0,0,1,7.92,14.57,11,11,0,0,1-5.43,6.45A22.87,22.87,0,0,1,150.51,36.67Zm-10.8-19v0c-3,0-6,0-9,0-1.17,0-1.21,0-1.21,1.1q0,6,0,12c0,1.13.06,1.19,1.14,1.19,5.45,0,10.91,0,16.36-.08a13.88,13.88,0,0,0,5.64-1.23c4.28-2,5.18-8.58.73-11.38a9.49,9.49,0,0,0-5-1.53C145.47,17.62,142.59,17.65,139.71,17.65Z"/><path class="cls-10" d="M233,34.56V14.73c0-.36,0-.73,0-1.1.08-1,.35-1.28,1.37-1.3,1.73,0,3.46,0,5.19,0h28.33c.42,0,.84,0,1.26,0a.93.93,0,0,1,1,1c0,1.2,0,2.41,0,3.62,0,.73-.42,1-1.1,1H241.81c-1.55,0-1.57,0-1.57,1.59q0,5,0,10.07c0,1.41.06,1.5,1.36,1.5,7.45,0,14.9-.05,22.35-.07,1.05,0,2.1,0,3.15,0s1.19.22,1.21,1.21,0,2.2,0,3.3c0,.76-.35,1.06-1,1.06-.84,0-1.68,0-2.52,0H241.48c-1.11.06-1.23.16-1.24,1.32,0,3.25,0,6.5,0,9.75,0,.84,0,1.68,0,2.52s.29,1.2,1.11,1.15c.37,0,.73,0,1.1,0h28.17a.7.7,0,0,1,.79.77c0,1.32,0,2.63,0,3.94,0,.53-.31.75-.77.8a8.15,8.15,0,0,1-1.1,0H235.08c-.26,0-.53,0-.79,0-1-.08-1.2-.28-1.24-1.25,0-1.15,0-2.3,0-3.46V34.56Z"/><path class="cls-10" d="M75.2,34.61v-20c0-.47,0-.94,0-1.41a.86.86,0,0,1,.79-.84,10.62,10.62,0,0,1,1.26,0l33.2,0h.79c.74,0,1,.41,1,1.09,0,1.15,0,2.3,0,3.45,0,.79-.38,1.13-1.17,1.11s-1.78,0-2.68,0L84.55,18c-.36,0-.73,0-1.1,0-1.15,0-1.22.08-1.23,1.29,0,3.52,0,7,0,10.55,0,1.11.17,1.29,1.25,1.31,1.73,0,3.46,0,5.19,0l18.73-.08h1.1c1.87,0,2,.13,1.9,1.95,0,.84,0,1.68,0,2.51s-.25,1.1-1,1.08c-.42,0-.84,0-1.26,0H83.31c-.81,0-1.12.39-1.11,1.17,0,1.78,0,3.56,0,5.35,0,2.15,0,4.3,0,6.45,0,1.77,0,1.77,1.73,1.78H98.1l13.06,0c.42,0,.84,0,1.26,0,.74,0,1,.41,1,1.09,0,1.16,0,2.31,0,3.46a.89.89,0,0,1-1,1c-.42,0-.84,0-1.26,0h-34c-2,0-2,0-2-2Z"/><path class="cls-10" d="M299.18,57.64a27.59,27.59,0,0,1-11.47-1.91A15,15,0,0,1,278.25,45a6.06,6.06,0,0,1-.16-.61c-.27-1.6,0-2,1.63-2.12,1.3-.09,2.61-.17,3.92-.28.74-.07,1.16.13,1.3.95.69,4.17,3.27,6.6,7.17,7.93a24.55,24.55,0,0,0,13.77.47,8.67,8.67,0,0,0,4.63-2.82A5.36,5.36,0,0,0,309.19,40a17.07,17.07,0,0,0-3.91-1.59c-4-1.17-8-1.81-12.06-2.81A31.52,31.52,0,0,1,285.84,33a10.21,10.21,0,0,1-5.58-6.86c-.94-4.3.65-7.83,3.93-10.6a15.48,15.48,0,0,1,6.34-3,31.26,31.26,0,0,1,16.89.38,15.5,15.5,0,0,1,6.32,3.69,13.48,13.48,0,0,1,3.58,6.87c.27,1.08-.18,1.69-1.25,1.67a35.62,35.62,0,0,0-4.38.38c-.73.07-1.15,0-1.3-.91-.75-4.3-3.64-6.43-7.68-7.21a26.47,26.47,0,0,0-10.15.22,8,8,0,0,0-4.31,2.46,4.72,4.72,0,0,0,1.13,7.6A21,21,0,0,0,295,29.61c3.86.93,7.8,1.5,11.63,2.54A27.87,27.87,0,0,1,311.81,34a18,18,0,0,1,2.42,1.45c6.76,4.72,5.42,13.47.71,17.4a20.71,20.71,0,0,1-10.21,4.5A30,30,0,0,1,299.18,57.64Z"/><path class="cls-11" d="M24,34.66V14.52c0-.37,0-.73,0-1.1,0-.69.33-1.09,1.05-1.09h5c.66,0,.95.36,1,1,0,.41,0,.83,0,1.25v15c0,.69.3,1.1,1,1.07.21,0,.42,0,.63,0H55.85c1.19,0,1.22,0,1.23-1.24q0-7.39,0-14.8c0-.36,0-.73,0-1.1a1.06,1.06,0,0,1,1.21-1.12c1.63,0,3.25,0,4.88,0,.82,0,1.15.36,1.1,1.15,0,.26,0,.52,0,.78q0,20.38,0,40.76c0,1.88-.11,2-1.9,1.89a28.37,28.37,0,0,0-3.45,0c-1.61.1-1.84-.12-1.84-1.72,0-5.62,0-11.23,0-16.84,0-2.44,0-2.4-2.41-2.39-7,0-14,0-20.93,0H33C31.08,36,31,36.1,31,37.91q0,8.73,0,17.47c0,1.39-.16,1.55-1.55,1.52s-2.61-.08-3.92,0S24,56.78,24,55.28c0-5.25,0-10.49,0-15.74V34.66Z"/><path class="cls-9" d="M234.41,128.72a2.63,2.63,0,0,1,.3,1.42c.54,19.19.78,38.38.88,57.58.09,18.46-.22,36.92-.12,55.38-.57.22-.64-.29-.81-.54a42.13,42.13,0,0,1-4.11-8.46A161.85,161.85,0,0,1,223.19,206q-1.5-8.21-2.37-16.48c-.31-2.92-.52-5.86-.67-8.79a151.67,151.67,0,0,1-.08-18.71,76.42,76.42,0,0,1,3.48-19.43c1.55-4.53,3.76-8.64,7.51-11.78A13.39,13.39,0,0,1,234.41,128.72Z"/><path class="cls-14" d="M245.5,278.76a16.24,16.24,0,0,1-1.46,6.76c-2,4.06-6.75,4.47-9.42.81-1.8-2.45-2.17-5.29-2.11-8.21a12.27,12.27,0,0,1,1.47-5.73,6.44,6.44,0,0,1,2.92-3,4.92,4.92,0,0,1,6.59,1.77A13.69,13.69,0,0,1,245.5,278.76Z"/><path class="cls-14" d="M250.65,112.68a24.56,24.56,0,0,1-8.63-1.16c-1.34-.42-1.59-.79-1.38-2.17a29.34,29.34,0,0,1,1.39-5.14,1.69,1.69,0,0,1,1.2-1.11,16.84,16.84,0,0,1,4.6-.91,24.86,24.86,0,0,1,11.11,1.4,9.64,9.64,0,0,1,4.09,2.82A1.65,1.65,0,0,1,263,109a11.08,11.08,0,0,1-6.06,3.07A20.65,20.65,0,0,1,250.65,112.68Z"/><path class="cls-14" d="M262.27,209.07a20.79,20.79,0,0,1,1.79,8.6,52.82,52.82,0,0,1-.57,9.4,86.24,86.24,0,0,1-1.84,10.35c-.36,1.39-.41,1.51-1.79,1-.63-.24-1.29-.4-1.92-.67a6.13,6.13,0,0,1-3.87-5.62,19.06,19.06,0,0,1,1.2-7.55,104.32,104.32,0,0,1,5.51-12.31C261.25,211.29,261.69,210.31,262.27,209.07Z"/><path class="cls-15" d="M279.72,153.1a25.14,25.14,0,0,1-1.34-5.78,51.1,51.1,0,0,1-.67-11.91,18.06,18.06,0,0,1,1.86-7.73,3.91,3.91,0,0,1,2.69-2.22,5.85,5.85,0,0,1,4.44,1.14c.64.42.47,1.12.39,1.73a61.75,61.75,0,0,1-1.27,7.27c-1.46,5.8-3.75,11.32-5.74,16.94A4.47,4.47,0,0,1,279.72,153.1Z"/><path class="cls-15" d="M266.12,265.63A44.19,44.19,0,0,1,256,264.49a20.42,20.42,0,0,1-2.66-.93c-1.06-.45-1.09-.67-.33-1.59a11.65,11.65,0,0,1,4.26-3.15,20.42,20.42,0,0,1,9-1.93,19.17,19.17,0,0,1,7.83,1.24c1.39.63,1.4.6,1.4,2.07,0,1.1,0,2.2,0,3.3,0,.82-.2,1.19-1.08,1.36A51.65,51.65,0,0,1,266.12,265.63Z"/><path class="cls-14" d="M210.55,264.36a22.39,22.39,0,0,1-4.27-.46,7.26,7.26,0,0,1-3.14-2,2.5,2.5,0,0,1-.43-3.16,5.24,5.24,0,0,1,2.12-2.25,8.29,8.29,0,0,1,3.71-1.14,26.73,26.73,0,0,1,14.62,3.32c1.63.89,1.66,1.13.1,2.13A22.75,22.75,0,0,1,210.55,264.36Z"/><path class="cls-15" d="M249,136.8c.09-1.21-.05-2.12.43-2.92.3-.5.61-1,1.29-1s1,.48,1.23,1a4.75,4.75,0,0,1,.12,3.2,2,2,0,0,1-1,1.31,1.61,1.61,0,0,1-1.63.18c-.57-.34-.43-.88-.42-1.39C249,137,249,136.72,249,136.8Z"/><path class="cls-9" d="M139.71,17.65c2.88,0,5.76,0,8.65,0a9.49,9.49,0,0,1,5,1.53c4.45,2.8,3.55,9.39-.73,11.38A13.88,13.88,0,0,1,147,31.8c-5.45.1-10.91.07-16.36.08-1.08,0-1.14-.06-1.14-1.19q0-6,0-12c0-1.08,0-1.1,1.21-1.1,3,0,6,0,9,0Z"/></g></g></svg>